<mxfile host="app.diagrams.net" modified="2020-05-14T17:18:10.419Z" agent="5.0 (Macintosh)" etag="_cMrXQGGBEOBOsXg_pkH" version="13.1.1" type="github">
  <diagram id="8plXeS_6gAHWKv4li25l" name="Page-1">
    <mxGraphModel dx="1382" dy="724" grid="1" gridSize="10" guides="1" tooltips="1" connect="1" arrows="1" fold="1" page="1" pageScale="1" pageWidth="850" pageHeight="1100" math="0" shadow="0">
      <root>
        <mxCell id="0" />
        <mxCell id="1" parent="0" />
        <mxCell id="ze_mwSEJfYMtS1VNut9u-42" value="Device Farm" style="verticalAlign=top;align=left;spacingTop=8;spacingLeft=2;spacingRight=12;shape=cube;size=10;direction=south;fontStyle=4;html=1;" parent="1" vertex="1">
          <mxGeometry x="520" y="559.5" width="210" height="110" as="geometry" />
        </mxCell>
        <mxCell id="5UYzzFFOy-JkbLlxX9Tr-5" style="edgeStyle=orthogonalEdgeStyle;rounded=0;orthogonalLoop=1;jettySize=auto;html=1;entryX=0.21;entryY=0.5;entryDx=0;entryDy=0;entryPerimeter=0;exitX=0.5;exitY=0.5;exitDx=0;exitDy=0;exitPerimeter=0;" parent="1" source="ze_mwSEJfYMtS1VNut9u-7" target="5UYzzFFOy-JkbLlxX9Tr-2" edge="1">
          <mxGeometry relative="1" as="geometry" />
        </mxCell>
        <mxCell id="5UYzzFFOy-JkbLlxX9Tr-6" value="Submits&lt;br&gt;Job" style="edgeLabel;html=1;align=center;verticalAlign=middle;resizable=0;points=[];" parent="5UYzzFFOy-JkbLlxX9Tr-5" vertex="1" connectable="0">
          <mxGeometry x="-0.2394" y="-2" relative="1" as="geometry">
            <mxPoint as="offset" />
          </mxGeometry>
        </mxCell>
        <mxCell id="5UYzzFFOy-JkbLlxX9Tr-8" style="edgeStyle=orthogonalEdgeStyle;rounded=0;orthogonalLoop=1;jettySize=auto;html=1;entryX=0.18;entryY=0.5;entryDx=0;entryDy=0;entryPerimeter=0;" parent="1" source="5UYzzFFOy-JkbLlxX9Tr-2" target="5UYzzFFOy-JkbLlxX9Tr-7" edge="1">
          <mxGeometry relative="1" as="geometry" />
        </mxCell>
        <mxCell id="5UYzzFFOy-JkbLlxX9Tr-2" value="Auto UI" style="shape=module;align=left;spacingLeft=20;align=center;verticalAlign=top;" parent="1" vertex="1">
          <mxGeometry x="140" y="145" width="100" height="50" as="geometry" />
        </mxCell>
        <mxCell id="5UYzzFFOy-JkbLlxX9Tr-10" style="edgeStyle=orthogonalEdgeStyle;rounded=0;orthogonalLoop=1;jettySize=auto;html=1;entryX=0.09;entryY=0.5;entryDx=0;entryDy=0;entryPerimeter=0;" parent="1" source="5UYzzFFOy-JkbLlxX9Tr-7" target="5UYzzFFOy-JkbLlxX9Tr-9" edge="1">
          <mxGeometry relative="1" as="geometry" />
        </mxCell>
        <mxCell id="5UYzzFFOy-JkbLlxX9Tr-11" value="Queue&lt;br&gt;Job" style="edgeLabel;html=1;align=center;verticalAlign=middle;resizable=0;points=[];" parent="5UYzzFFOy-JkbLlxX9Tr-10" vertex="1" connectable="0">
          <mxGeometry x="-0.2653" y="-2" relative="1" as="geometry">
            <mxPoint as="offset" />
          </mxGeometry>
        </mxCell>
        <mxCell id="5UYzzFFOy-JkbLlxX9Tr-7" value="Auto API" style="shape=module;align=left;spacingLeft=20;align=center;verticalAlign=top;" parent="1" vertex="1">
          <mxGeometry x="290" y="145" width="100" height="50" as="geometry" />
        </mxCell>
        <mxCell id="5UYzzFFOy-JkbLlxX9Tr-15" style="edgeStyle=orthogonalEdgeStyle;rounded=0;orthogonalLoop=1;jettySize=auto;html=1;entryX=0.5;entryY=0.5;entryDx=0;entryDy=0;entryPerimeter=0;" parent="1" source="5UYzzFFOy-JkbLlxX9Tr-9" target="5UYzzFFOy-JkbLlxX9Tr-12" edge="1">
          <mxGeometry relative="1" as="geometry" />
        </mxCell>
        <mxCell id="5UYzzFFOy-JkbLlxX9Tr-9" value="Platform API" style="shape=module;align=left;spacingLeft=20;align=center;verticalAlign=top;" parent="1" vertex="1">
          <mxGeometry x="440" y="145" width="100" height="50" as="geometry" />
        </mxCell>
        <mxCell id="5UYzzFFOy-JkbLlxX9Tr-17" style="edgeStyle=orthogonalEdgeStyle;rounded=0;orthogonalLoop=1;jettySize=auto;html=1;entryX=0.08;entryY=0.5;entryDx=0;entryDy=0;entryPerimeter=0;" parent="1" source="5UYzzFFOy-JkbLlxX9Tr-12" target="5UYzzFFOy-JkbLlxX9Tr-16" edge="1">
          <mxGeometry relative="1" as="geometry" />
        </mxCell>
        <mxCell id="5UYzzFFOy-JkbLlxX9Tr-18" value="Schedule&lt;br&gt;Job" style="edgeLabel;html=1;align=center;verticalAlign=middle;resizable=0;points=[];" parent="5UYzzFFOy-JkbLlxX9Tr-17" vertex="1" connectable="0">
          <mxGeometry x="0.2414" y="-1" relative="1" as="geometry">
            <mxPoint x="-18" y="-1" as="offset" />
          </mxGeometry>
        </mxCell>
        <mxCell id="5UYzzFFOy-JkbLlxX9Tr-12" value="Pick&lt;br&gt;Worker" style="shape=umlActor;verticalLabelPosition=bottom;labelBackgroundColor=#ffffff;verticalAlign=top;html=1;" parent="1" vertex="1">
          <mxGeometry x="590" y="140" width="30" height="60" as="geometry" />
        </mxCell>
        <mxCell id="ze_mwSEJfYMtS1VNut9u-15" style="edgeStyle=orthogonalEdgeStyle;rounded=0;orthogonalLoop=1;jettySize=auto;html=1;entryX=0.5;entryY=0;entryDx=0;entryDy=0;entryPerimeter=0;" parent="1" source="5UYzzFFOy-JkbLlxX9Tr-16" target="5UYzzFFOy-JkbLlxX9Tr-20" edge="1">
          <mxGeometry relative="1" as="geometry" />
        </mxCell>
        <mxCell id="ze_mwSEJfYMtS1VNut9u-16" style="edgeStyle=orthogonalEdgeStyle;rounded=0;orthogonalLoop=1;jettySize=auto;html=1;entryX=0.5;entryY=0;entryDx=0;entryDy=0;entryPerimeter=0;" parent="1" source="5UYzzFFOy-JkbLlxX9Tr-16" target="ze_mwSEJfYMtS1VNut9u-11" edge="1">
          <mxGeometry relative="1" as="geometry" />
        </mxCell>
        <mxCell id="ze_mwSEJfYMtS1VNut9u-17" style="edgeStyle=orthogonalEdgeStyle;rounded=0;orthogonalLoop=1;jettySize=auto;html=1;entryX=0.5;entryY=0;entryDx=0;entryDy=0;entryPerimeter=0;" parent="1" source="5UYzzFFOy-JkbLlxX9Tr-16" target="ze_mwSEJfYMtS1VNut9u-14" edge="1">
          <mxGeometry relative="1" as="geometry" />
        </mxCell>
        <mxCell id="ze_mwSEJfYMtS1VNut9u-47" style="edgeStyle=orthogonalEdgeStyle;rounded=0;orthogonalLoop=1;jettySize=auto;html=1;entryX=0.5;entryY=1;entryDx=0;entryDy=0;" parent="1" source="5UYzzFFOy-JkbLlxX9Tr-16" target="5UYzzFFOy-JkbLlxX9Tr-9" edge="1">
          <mxGeometry relative="1" as="geometry" />
        </mxCell>
        <mxCell id="5UYzzFFOy-JkbLlxX9Tr-16" value="Loderunner" style="shape=module;align=left;spacingLeft=20;align=center;verticalAlign=top;" parent="1" vertex="1">
          <mxGeometry x="597" y="300" width="100" height="50" as="geometry" />
        </mxCell>
        <mxCell id="ze_mwSEJfYMtS1VNut9u-30" style="edgeStyle=orthogonalEdgeStyle;rounded=0;orthogonalLoop=1;jettySize=auto;html=1;entryX=0;entryY=0.954;entryDx=0;entryDy=0;entryPerimeter=0;" parent="1" source="5UYzzFFOy-JkbLlxX9Tr-20" target="ze_mwSEJfYMtS1VNut9u-25" edge="1">
          <mxGeometry relative="1" as="geometry" />
        </mxCell>
        <mxCell id="5UYzzFFOy-JkbLlxX9Tr-20" value="Static&lt;br&gt;Worker" style="shape=umlActor;verticalLabelPosition=bottom;labelBackgroundColor=#ffffff;verticalAlign=top;html=1;" parent="1" vertex="1">
          <mxGeometry x="170" y="350" width="30" height="60" as="geometry" />
        </mxCell>
        <mxCell id="ze_mwSEJfYMtS1VNut9u-1" value="" style="ellipse;html=1;shape=startState;fillColor=#000000;strokeColor=#ff0000;" parent="1" vertex="1">
          <mxGeometry x="30" y="20" width="30" height="30" as="geometry" />
        </mxCell>
        <mxCell id="ze_mwSEJfYMtS1VNut9u-2" value="" style="edgeStyle=orthogonalEdgeStyle;html=1;verticalAlign=bottom;endArrow=open;endSize=8;strokeColor=#ff0000;" parent="1" source="ze_mwSEJfYMtS1VNut9u-1" edge="1">
          <mxGeometry relative="1" as="geometry">
            <mxPoint x="45" y="140" as="targetPoint" />
          </mxGeometry>
        </mxCell>
        <mxCell id="ze_mwSEJfYMtS1VNut9u-7" value="Customer" style="shape=umlActor;verticalLabelPosition=bottom;labelBackgroundColor=#ffffff;verticalAlign=top;html=1;" parent="1" vertex="1">
          <mxGeometry x="30" y="140" width="30" height="60" as="geometry" />
        </mxCell>
        <mxCell id="ze_mwSEJfYMtS1VNut9u-29" style="edgeStyle=orthogonalEdgeStyle;rounded=0;orthogonalLoop=1;jettySize=auto;html=1;entryX=-0.007;entryY=0.806;entryDx=0;entryDy=0;entryPerimeter=0;" parent="1" source="ze_mwSEJfYMtS1VNut9u-11" target="ze_mwSEJfYMtS1VNut9u-25" edge="1">
          <mxGeometry relative="1" as="geometry" />
        </mxCell>
        <mxCell id="ze_mwSEJfYMtS1VNut9u-11" value="Yaap&lt;br&gt;Worker" style="shape=umlActor;verticalLabelPosition=bottom;labelBackgroundColor=#ffffff;verticalAlign=top;html=1;" parent="1" vertex="1">
          <mxGeometry x="250" y="350" width="30" height="60" as="geometry" />
        </mxCell>
        <mxCell id="ze_mwSEJfYMtS1VNut9u-22" style="edgeStyle=orthogonalEdgeStyle;rounded=0;orthogonalLoop=1;jettySize=auto;html=1;entryX=0.08;entryY=0.52;entryDx=0;entryDy=0;entryPerimeter=0;" parent="1" source="ze_mwSEJfYMtS1VNut9u-14" target="ze_mwSEJfYMtS1VNut9u-21" edge="1">
          <mxGeometry relative="1" as="geometry" />
        </mxCell>
        <mxCell id="ze_mwSEJfYMtS1VNut9u-23" value="Allocate Device" style="edgeLabel;html=1;align=center;verticalAlign=middle;resizable=0;points=[];" parent="ze_mwSEJfYMtS1VNut9u-22" vertex="1" connectable="0">
          <mxGeometry x="0.677" y="-2" relative="1" as="geometry">
            <mxPoint as="offset" />
          </mxGeometry>
        </mxCell>
        <mxCell id="ze_mwSEJfYMtS1VNut9u-28" style="edgeStyle=orthogonalEdgeStyle;rounded=0;orthogonalLoop=1;jettySize=auto;html=1;entryX=0;entryY=0.657;entryDx=0;entryDy=0;entryPerimeter=0;" parent="1" source="ze_mwSEJfYMtS1VNut9u-14" target="ze_mwSEJfYMtS1VNut9u-25" edge="1">
          <mxGeometry relative="1" as="geometry" />
        </mxCell>
        <mxCell id="ze_mwSEJfYMtS1VNut9u-14" value="Dynamic&lt;br&gt;Worker (LRR)" style="shape=umlActor;verticalLabelPosition=bottom;labelBackgroundColor=#ffffff;verticalAlign=top;html=1;" parent="1" vertex="1">
          <mxGeometry x="330" y="350" width="30" height="60" as="geometry" />
        </mxCell>
        <mxCell id="ze_mwSEJfYMtS1VNut9u-36" style="edgeStyle=orthogonalEdgeStyle;rounded=0;orthogonalLoop=1;jettySize=auto;html=1;" parent="1" source="ze_mwSEJfYMtS1VNut9u-21" edge="1">
          <mxGeometry relative="1" as="geometry">
            <mxPoint x="647" y="480" as="targetPoint" />
          </mxGeometry>
        </mxCell>
        <mxCell id="ze_mwSEJfYMtS1VNut9u-21" value="DMS" style="shape=module;align=left;spacingLeft=20;align=center;verticalAlign=top;" parent="1" vertex="1">
          <mxGeometry x="597" y="400" width="100" height="50" as="geometry" />
        </mxCell>
        <mxCell id="ze_mwSEJfYMtS1VNut9u-25" value="Kubernetes" style="verticalAlign=top;align=left;spacingTop=8;spacingLeft=2;spacingRight=12;shape=cube;size=10;direction=south;fontStyle=4;html=1;" parent="1" vertex="1">
          <mxGeometry x="160" y="480" width="320" height="220" as="geometry" />
        </mxCell>
        <mxCell id="ze_mwSEJfYMtS1VNut9u-26" value="Static Pod" style="shape=module;align=left;spacingLeft=20;align=center;verticalAlign=top;" parent="1" vertex="1">
          <mxGeometry x="180" y="525" width="100" height="50" as="geometry" />
        </mxCell>
        <mxCell id="ze_mwSEJfYMtS1VNut9u-27" value="Dynamic Pod" style="shape=module;align=left;spacingLeft=20;align=center;verticalAlign=top;" parent="1" vertex="1">
          <mxGeometry x="325" y="525" width="100" height="50" as="geometry" />
        </mxCell>
        <mxCell id="ze_mwSEJfYMtS1VNut9u-31" value="Static Tools" style="shape=module;align=left;spacingLeft=20;align=center;verticalAlign=top;" parent="1" vertex="1">
          <mxGeometry x="190" y="535" width="100" height="50" as="geometry" />
        </mxCell>
        <mxCell id="ze_mwSEJfYMtS1VNut9u-43" style="edgeStyle=orthogonalEdgeStyle;rounded=0;orthogonalLoop=1;jettySize=auto;html=1;entryX=0.436;entryY=1.014;entryDx=0;entryDy=0;entryPerimeter=0;" parent="1" source="ze_mwSEJfYMtS1VNut9u-33" target="ze_mwSEJfYMtS1VNut9u-42" edge="1">
          <mxGeometry relative="1" as="geometry" />
        </mxCell>
        <mxCell id="ze_mwSEJfYMtS1VNut9u-33" value="Dynamic CLI" style="shape=module;align=left;spacingLeft=20;align=center;verticalAlign=top;" parent="1" vertex="1">
          <mxGeometry x="335" y="535" width="100" height="50" as="geometry" />
        </mxCell>
        <mxCell id="ze_mwSEJfYMtS1VNut9u-34" value="" style="pointerEvents=1;shadow=0;dashed=0;html=1;strokeColor=none;fillColor=#505050;labelPosition=center;verticalLabelPosition=bottom;verticalAlign=top;outlineConnect=0;align=center;shape=mxgraph.office.devices.cell_phone_windows_phone_proportional;" parent="1" vertex="1">
          <mxGeometry x="607" y="600" width="16" height="29" as="geometry" />
        </mxCell>
        <mxCell id="ze_mwSEJfYMtS1VNut9u-35" value="Device&#xa;Controller" style="shape=module;align=left;spacingLeft=20;align=center;verticalAlign=top;" parent="1" vertex="1">
          <mxGeometry x="597" y="485" width="100" height="50" as="geometry" />
        </mxCell>
        <mxCell id="ze_mwSEJfYMtS1VNut9u-45" style="edgeStyle=orthogonalEdgeStyle;rounded=0;orthogonalLoop=1;jettySize=auto;html=1;" parent="1" edge="1">
          <mxGeometry relative="1" as="geometry">
            <mxPoint x="560" y="559" as="targetPoint" />
            <mxPoint x="607" y="529" as="sourcePoint" />
          </mxGeometry>
        </mxCell>
        <mxCell id="ze_mwSEJfYMtS1VNut9u-37" value="Device&#xa;Controller" style="shape=module;align=left;spacingLeft=20;align=center;verticalAlign=top;" parent="1" vertex="1">
          <mxGeometry x="607" y="495" width="100" height="50" as="geometry" />
        </mxCell>
        <mxCell id="ze_mwSEJfYMtS1VNut9u-38" value="" style="pointerEvents=1;shadow=0;dashed=0;html=1;strokeColor=none;fillColor=#505050;labelPosition=center;verticalLabelPosition=bottom;verticalAlign=top;outlineConnect=0;align=center;shape=mxgraph.office.devices.cell_phone_windows_phone_proportional;" parent="1" vertex="1">
          <mxGeometry x="640" y="600" width="16" height="29" as="geometry" />
        </mxCell>
        <mxCell id="ze_mwSEJfYMtS1VNut9u-39" value="" style="pointerEvents=1;shadow=0;dashed=0;html=1;strokeColor=none;fillColor=#505050;labelPosition=center;verticalLabelPosition=bottom;verticalAlign=top;outlineConnect=0;align=center;shape=mxgraph.office.devices.cell_phone_windows_phone_proportional;" parent="1" vertex="1">
          <mxGeometry x="670" y="600" width="16" height="29" as="geometry" />
        </mxCell>
        <mxCell id="ze_mwSEJfYMtS1VNut9u-40" value="" style="pointerEvents=1;shadow=0;dashed=0;html=1;strokeColor=none;fillColor=#505050;labelPosition=center;verticalLabelPosition=bottom;verticalAlign=top;outlineConnect=0;align=center;shape=mxgraph.office.devices.cell_phone_windows_phone_proportional;" parent="1" vertex="1">
          <mxGeometry x="697" y="600" width="16" height="29" as="geometry" />
        </mxCell>
        <mxCell id="ze_mwSEJfYMtS1VNut9u-41" value="" style="pointerEvents=1;shadow=0;dashed=0;html=1;strokeColor=none;fillColor=#505050;labelPosition=center;verticalLabelPosition=bottom;verticalAlign=top;outlineConnect=0;align=center;shape=mxgraph.office.devices.cell_phone_windows_phone_proportional;" parent="1" vertex="1">
          <mxGeometry x="574" y="600" width="16" height="29" as="geometry" />
        </mxCell>
        <mxCell id="MrDo1AtJTv-XtQDLNTLO-1" value="Tools CLI" style="shape=module;align=left;spacingLeft=20;align=center;verticalAlign=top;" vertex="1" parent="1">
          <mxGeometry x="190" y="610" width="100" height="50" as="geometry" />
        </mxCell>
        <mxCell id="MrDo1AtJTv-XtQDLNTLO-2" value="Other Tools" style="shape=module;align=left;spacingLeft=20;align=center;verticalAlign=top;" vertex="1" parent="1">
          <mxGeometry x="200" y="620" width="100" height="50" as="geometry" />
        </mxCell>
        <mxCell id="MrDo1AtJTv-XtQDLNTLO-3" value="Dynamic CLI" style="shape=module;align=left;spacingLeft=20;align=center;verticalAlign=top;" vertex="1" parent="1">
          <mxGeometry x="325" y="619.5" width="100" height="50" as="geometry" />
        </mxCell>
        <mxCell id="MrDo1AtJTv-XtQDLNTLO-4" value="MITM" style="shape=module;align=left;spacingLeft=20;align=center;verticalAlign=top;" vertex="1" parent="1">
          <mxGeometry x="335" y="629.5" width="100" height="50" as="geometry" />
        </mxCell>
        <mxCell id="MrDo1AtJTv-XtQDLNTLO-5" value="S3" style="ellipse;shape=cloud;whiteSpace=wrap;html=1;" vertex="1" parent="1">
          <mxGeometry x="30" y="525" width="120" height="80" as="geometry" />
        </mxCell>
      </root>
    </mxGraphModel>
  </diagram>
</mxfile>
